{"title":"40 Days and 40 Nights 2002 720p BRRip H264 AAC-Rx(Phoenix-RG)","uid":6363343,"size":1520032117,"categoryP":"video","categoryS":"hd___movies","magnet":"?xt=urn:btih:3051ace1c08c2e07785e0b81624dc5d22156030b&amp;dn=40+Days+and+40+Nights+2002+720p+BRRip+H264+AAC-Rx%28Phoenix-RG%29&amp;tr=udp%3A%2F%2Ftracker.openbittorrent.com%3A80&amp;tr=udp%3A%2F%2Fopen.demonii.com%3A1337&amp;tr=udp%3A%2F%2Ftracker.coppersurfer.tk%3A6969&amp;tr=udp%3A%2F%2Fexodus.desync.com%3A6969","seeders":2,"leechers":1,"uploader":"rev-x","files":10,"time":1304418206,"description":"40 Days and 40 Nights 2002 720p BRRip H264 AAC-Rx(Phoenix-RG).mp4\n     Format : MPEG-4 / AVC\n      File size : 1.42 GiB\n      Duration : 1h 35mn\n      Overall bit rate : 2 124 Kbps\n      Bit rate mode : Variable\n      Bit rate : 1 800 Kbps\n      Width : 1 280 pixels\n      Height : 720 pixels\n      Display aspect ratio : 16:9\n      Frame rate mode : Variable\n      Frame rate : 23.976 fps\n      Resolution : 24 bits\n      Colorimetry : 4:2:0\n      Scan type : Progressive\n      Bits/(Pixel*Frame) : 0.081\n      Stream size : 1.20 GiB (85%)\n     \n     AUDIO: \n      Format : AAC / LC\n      Duration : 1h 35mn\n      Bit rate mode : Variable\n      Bit rate : 320 Kbps\n      Maximum bit rate : 439 Kbps\n      Channel(s) : 6 channels\n      Channel positions : Front: L C R, Rear: L R, LFE\n      Sampling rate : 48.0 KHz\n      Resolution : 16 bits\n      Stream size : 218 MiB (15%)\n\nSCREEN:\n &lt;a href=&quot;\nhttp://img231.imageshack.us/img231/352/vlcsnap2011050112h54m34.png&quot; rel=&quot;nofollow&quot; target=&quot;_NEW&quot;&gt;\nhttp://img231.imageshack.us/img231/352/vlcsnap2011050112h54m34.png&lt;/a&gt;\n &lt;a href=&quot;\nhttp://img15.imageshack.us/img15/1820/vlcsnap2011050112h56m08.png&quot; rel=&quot;nofollow&quot; target=&quot;_NEW&quot;&gt;\nhttp://img15.imageshack.us/img15/1820/vlcsnap2011050112h56m08.png&lt;/a&gt;\n &lt;a href=&quot;\nhttp://img695.imageshack.us/img695/8655/vlcsnap2011050112h56m14.png&quot; rel=&quot;nofollow&quot; target=&quot;_NEW&quot;&gt;\nhttp://img695.imageshack.us/img695/8655/vlcsnap2011050112h56m14.png&lt;/a&gt;\n","torrent":{"xt":"urn:btih:3051ace1c08c2e07785e0b81624dc5d22156030b","amp;dn":"40+Days+and+40+Nights+2002+720p+BRRip+H264+AAC-Rx%28Phoenix-RG%29","amp;tr":["udp%3A%2F%2Ftracker.openbittorrent.com%3A80","udp%3A%2F%2Fopen.demonii.com%3A1337","udp%3A%2F%2Ftracker.coppersurfer.tk%3A6969","udp%3A%2F%2Fexodus.desync.com%3A6969"],"infoHash":"3051ace1c08c2e07785e0b81624dc5d22156030b","infoHashBuffer":{"type":"Buffer","data":[48,81,172,225,192,140,46,7,120,94,11,129,98,77,197,210,33,86,3,11]},"announce":[],"urlList":[]}}